<svg width="17" height="18" viewBox="0 0 17 18" fill="none" xmlns="http://www.w3.org/2000/svg">
<g clip-path="url(#clip0_66_1449)">
<g clip-path="url(#clip1_66_1449)">
<path d="M8.28125 9C9.47472 9 10.6193 8.52589 11.4632 7.68198C12.3071 6.83807 12.7812 5.69347 12.7812 4.5C12.7812 3.30653 12.3071 2.16193 11.4632 1.31802C10.6193 0.474106 9.47472 0 8.28125 0C7.08778 0 5.94318 0.474106 5.09927 1.31802C4.25536 2.16193 3.78125 3.30653 3.78125 4.5C3.78125 5.69347 4.25536 6.83807 5.09927 7.68198C5.94318 8.52589 7.08778 9 8.28125 9ZM6.67461 10.6875C3.21172 10.6875 0.40625 13.493 0.40625 16.9559C0.40625 17.5324 0.873828 18 1.45039 18H15.1121C15.6887 18 16.1562 17.5324 16.1562 16.9559C16.1562 13.493 13.3508 10.6875 9.88789 10.6875H6.67461Z" fill="#0886DB"/>
</g>
</g>
<defs>
<clipPath id="clip0_66_1449">
<rect width="15.75" height="18" fill="white" transform="translate(0.40625)"/>
</clipPath>
<clipPath id="clip1_66_1449">
<path d="M0.40625 0H16.1562V18H0.40625V0Z" fill="white"/>
</clipPath>
</defs>
</svg>
