<svg width="24" height="18" viewBox="0 0 24 18" fill="none" xmlns="http://www.w3.org/2000/svg">
<g clip-path="url(#clip0_66_1446)">
<path d="M7.90663 12.375C11.9461 12.375 15.2191 9.60469 15.2191 6.1875C15.2191 2.77031 11.9461 0 7.90663 0C3.86718 0 0.594135 2.77031 0.594135 6.1875C0.594135 7.54453 1.11093 8.79961 1.98632 9.82266C1.86328 10.1531 1.68046 10.4449 1.4871 10.691C1.31835 10.909 1.14609 11.0777 1.01953 11.1937C0.956244 11.25 0.90351 11.2957 0.868354 11.3238C0.850775 11.3379 0.836713 11.3484 0.829682 11.352L0.82265 11.359C0.629291 11.5031 0.544916 11.7562 0.62226 11.9848C0.699604 12.2133 0.914057 12.375 1.15663 12.375C1.92304 12.375 2.69648 12.1781 3.33984 11.9355C3.66328 11.8125 3.96562 11.6754 4.22929 11.5348C5.30859 12.0691 6.56367 12.375 7.90663 12.375ZM16.3441 6.1875C16.3441 10.1355 12.8602 13.1098 8.73281 13.4648C9.5871 16.0805 12.4207 18 15.7816 18C17.1246 18 18.3797 17.6941 19.4625 17.1598C19.7262 17.3004 20.025 17.4375 20.3484 17.5605C20.9918 17.8031 21.7652 18 22.5316 18C22.7742 18 22.9922 17.8418 23.066 17.6098C23.1398 17.3777 23.059 17.1246 22.8621 16.9805L22.8551 16.9734C22.848 16.9664 22.834 16.9594 22.8164 16.9453C22.7812 16.9172 22.7285 16.875 22.6652 16.8152C22.5387 16.6992 22.3664 16.5305 22.1976 16.3125C22.0043 16.0664 21.8215 15.7711 21.6984 15.4441C22.5738 14.4246 23.0906 13.1695 23.0906 11.809C23.0906 8.54648 20.1059 5.87109 16.3195 5.63906C16.3336 5.81836 16.3406 6.00117 16.3406 6.18398L16.3441 6.1875Z" fill="#0886DB"/>
</g>
<defs>
<clipPath id="clip0_66_1446">
<path d="M0.59375 0H23.0938V18H0.59375V0Z" fill="white"/>
</clipPath>
</defs>
</svg>
