<svg width="21" height="18" viewBox="0 0 21 18" fill="none" xmlns="http://www.w3.org/2000/svg">
<g clip-path="url(#clip0_66_1437)">
<g clip-path="url(#clip1_66_1437)">
<path d="M20.5711 8.98242C20.5711 9.61523 20.0437 10.1109 19.4461 10.1109H18.3211L18.3457 15.743C18.3457 15.8379 18.3387 15.9328 18.3281 16.0277V16.5938C18.3281 17.3707 17.6988 18 16.9219 18H16.3594C16.3207 18 16.282 18 16.2434 17.9965C16.1941 18 16.1449 18 16.0957 18H14.9531H14.1094C13.3324 18 12.7031 17.3707 12.7031 16.5938V15.75V13.5C12.7031 12.8777 12.2004 12.375 11.5781 12.375H9.32812C8.70586 12.375 8.20312 12.8777 8.20312 13.5V15.75V16.5938C8.20312 17.3707 7.57383 18 6.79688 18H5.95312H4.83164C4.77891 18 4.72617 17.9965 4.67344 17.993C4.63125 17.9965 4.58906 18 4.54688 18H3.98438C3.20742 18 2.57812 17.3707 2.57812 16.5938V12.6562C2.57812 12.6246 2.57812 12.5895 2.58164 12.5578V10.1109H1.45312C0.820312 10.1109 0.328125 9.61875 0.328125 8.98242C0.328125 8.66602 0.433594 8.38477 0.679688 8.13867L9.69375 0.28125C9.93984 0.0351562 10.2211 0 10.4672 0C10.7133 0 10.9945 0.0703125 11.2055 0.246094L20.1844 8.13867C20.4656 8.38477 20.6062 8.66602 20.5711 8.98242Z" fill="#DF2222"/>
</g>
</g>
<defs>
<clipPath id="clip0_66_1437">
<rect width="20.25" height="18" fill="white" transform="translate(0.328125)"/>
</clipPath>
<clipPath id="clip1_66_1437">
<path d="M0.328125 0H20.5781V18H0.328125V0Z" fill="white"/>
</clipPath>
</defs>
</svg>
