<svg width="14" height="18" viewBox="0 0 14 18" fill="none" xmlns="http://www.w3.org/2000/svg">
<path d="M0 1.125C0 0.502734 0.502734 0 1.125 0H12.375C12.9973 0 13.5 0.502734 13.5 1.125V2.25C13.5 2.87227 12.9973 3.375 12.375 3.375H1.125C0.502734 3.375 0 2.87227 0 2.25V1.125ZM1.125 4.5H12.375V15.75C12.375 16.991 11.366 18 10.125 18H3.375C2.13398 18 1.125 16.991 1.125 15.75V4.5ZM5.625 8.4375V10.125H3.9375C3.62812 10.125 3.375 10.3781 3.375 10.6875V11.8125C3.375 12.1219 3.62812 12.375 3.9375 12.375H5.625V14.0625C5.625 14.3719 5.87813 14.625 6.1875 14.625H7.3125C7.62187 14.625 7.875 14.3719 7.875 14.0625V12.375H9.5625C9.87187 12.375 10.125 12.1219 10.125 11.8125V10.6875C10.125 10.3781 9.87187 10.125 9.5625 10.125H7.875V8.4375C7.875 8.12813 7.62187 7.875 7.3125 7.875H6.1875C5.87813 7.875 5.625 8.12813 5.625 8.4375Z" fill="#4A90E2"/>
</svg>
