<svg width="16" height="18" viewBox="0 0 16 18" fill="none" xmlns="http://www.w3.org/2000/svg">
<path d="M10.9375 4.5C10.9375 3.75408 10.6412 3.03871 10.1137 2.51126C9.58629 1.98382 8.87092 1.6875 8.125 1.6875C7.37908 1.6875 6.66371 1.98382 6.13626 2.51126C5.60882 3.03871 5.3125 3.75408 5.3125 4.5C5.3125 5.24592 5.60882 5.96129 6.13626 6.48874C6.66371 7.01618 7.37908 7.3125 8.125 7.3125C8.87092 7.3125 9.58629 7.01618 10.1137 6.48874C10.6412 5.96129 10.9375 5.24592 10.9375 4.5ZM3.625 4.5C3.625 3.30653 4.09911 2.16193 4.94302 1.31802C5.78693 0.474106 6.93153 0 8.125 0C9.31847 0 10.4631 0.474106 11.307 1.31802C12.1509 2.16193 12.625 3.30653 12.625 4.5C12.625 5.69347 12.1509 6.83807 11.307 7.68198C10.4631 8.52589 9.31847 9 8.125 9C6.93153 9 5.78693 8.52589 4.94302 7.68198C4.09911 6.83807 3.625 5.69347 3.625 4.5ZM1.9832 16.3125H14.2668C13.9539 14.0871 12.0414 12.375 9.73164 12.375H6.51836C4.20859 12.375 2.29609 14.0871 1.9832 16.3125ZM0.25 16.9559C0.25 13.493 3.05547 10.6875 6.51836 10.6875H9.73164C13.1945 10.6875 16 13.493 16 16.9559C16 17.5324 15.5324 18 14.9559 18H1.29414C0.717578 18 0.25 17.5324 0.25 16.9559Z" fill="#4A90E2"/>
</svg>
